<?xml version="1.0" encoding="UTF-8"?>
<svg id="Layer_1" data-name="Layer 1" xmlns="http://www.w3.org/2000/svg" viewBox="0 0 793.57 224.45">
  <defs>
    <style>
      .cls-1 {
        fill: #fff;
        stroke-width: 0px;
      }
    </style>
  </defs>
  <g>
    <path class="cls-1" d="m327.38,150.53h-49.85v-75.25h49.85v12.98h-34.11v18.15h32.18v12.1h-32.18v18.98h34.11v13.04Z"/>
    <path class="cls-1" d="m338.7,126.59v-13.3h34.26v13.3h-34.26Z"/>
    <path class="cls-1" d="m416.3,75.28c15.44,0,26.07,10.27,26.07,25.76s-11,25.76-26.86,25.76h-14.08v23.73h-15.75v-75.25h30.61Zm-14.86,39.22h10.64c9.02,0,14.29-4.8,14.29-13.4s-5.21-13.35-14.24-13.35h-10.69v26.75Z"/>
    <path class="cls-1" d="m450.36,94.62h14.71v10.06h.31c1.98-7.09,6.73-10.95,13.3-10.95,1.77,0,3.29.26,4.33.57v13.4c-1.25-.52-3.34-.89-5.53-.89-7.51,0-11.89,4.59-11.89,12.46v31.24h-15.23v-55.9Z"/>
    <path class="cls-1" d="m538.39,133.42c-1.67,10.95-11.68,18.3-25.5,18.3-17.21,0-27.53-11-27.53-28.89s10.43-29.41,26.96-29.41,26.54,11,26.54,28v4.64h-38.54v.94c0,7.98,5.06,13.45,12.83,13.45,5.58,0,9.86-2.76,11.26-7.04h13.98Zm-37.91-16.69h23.73c-.31-7.14-4.95-12.05-11.73-12.05s-11.47,5.06-11.99,12.05Z"/>
    <path class="cls-1" d="m569.32,93.43c14.03,0,23.15,7.09,23.36,17.94h-14.03c-.31-4.49-3.91-7.25-9.54-7.25-5.27,0-8.71,2.4-8.71,6,0,2.76,2.4,4.64,7.3,5.79l10.69,2.29c11.21,2.5,15.75,6.94,15.75,15.28,0,11-10.12,18.25-24.88,18.25s-24.09-7.2-24.93-18.1h14.86c.73,4.69,4.43,7.41,10.48,7.41s9.28-2.29,9.28-5.95c0-2.82-1.88-4.38-6.88-5.58l-10.33-2.3c-10.59-2.4-16.01-7.93-16.01-16.17,0-10.64,9.23-17.63,23.57-17.63Z"/>
    <path class="cls-1" d="m652.7,133.42c-1.67,10.95-11.68,18.3-25.5,18.3-17.21,0-27.53-11-27.53-28.89s10.43-29.41,26.96-29.41,26.54,11,26.54,28v4.64h-38.54v.94c0,7.98,5.06,13.45,12.83,13.45,5.58,0,9.86-2.76,11.26-7.04h13.98Zm-37.91-16.69h23.73c-.31-7.14-4.95-12.05-11.73-12.05s-11.47,5.06-11.99,12.05Z"/>
    <path class="cls-1" d="m661,94.62h14.71v9.96h.31c2.97-6.94,8.86-11,17.47-11,12.41,0,19.4,7.82,19.4,20.91v36.03h-15.23v-32.85c0-7.3-3.44-11.47-10.27-11.47s-11.16,5.01-11.16,12.26v32.07h-15.23v-55.9Z"/>
    <path class="cls-1" d="m745.17,93.43c14.03,0,23.15,7.09,23.36,17.94h-14.03c-.31-4.49-3.91-7.25-9.54-7.25-5.27,0-8.71,2.4-8.71,6,0,2.76,2.4,4.64,7.3,5.79l10.69,2.29c11.21,2.5,15.75,6.94,15.75,15.28,0,11-10.12,18.25-24.88,18.25s-24.09-7.2-24.93-18.1h14.86c.73,4.69,4.43,7.41,10.48,7.41s9.28-2.29,9.28-5.95c0-2.82-1.88-4.38-6.88-5.58l-10.33-2.3c-10.59-2.4-16.01-7.93-16.01-16.17,0-10.64,9.23-17.63,23.57-17.63Z"/>
    <path class="cls-1" d="m777.3,80.6c0-4.43,3.55-7.87,8.14-7.87s8.14,3.44,8.14,7.87-3.55,7.87-8.14,7.87-8.14-3.49-8.14-7.87Zm.52,14.03h15.23v55.9h-15.23v-55.9Z"/>
  </g>
  <g>
    <path class="cls-1" d="m112.84,0c10.69,11.17,25.33,16.24,39.66,21.77,14.94,5.76,27.18,15,37.41,27.22,10.09,12.05,20.17,24.14,33.45,32.97.57.38.97,1.87.7,2.51-5.6,13.07-7.07,26.9-7.62,40.88-.68,17.22-5.2,33.19-14.65,47.71-2.95,4.53-5.65,9.23-8.3,13.95-5.12,9.1-9.49,18.49-10.29,29.37-16.21-2.89-31.42,1.49-46.59,5.25-18.31,4.54-36.21,3.27-54.19-1.58-9.93-2.68-20.04-4.76-30.43-4.53-3.51.08-7.01.55-10.84.86-1.34-9.3-4.67-18.09-9.36-26.38-2.67-4.71-5.17-9.53-8.16-14.02-11.11-16.65-15.75-35-15.89-54.91-.09-13.1-1.19-26.23-7.72-37.95,4.36-3.52,8.93-6.53,12.65-10.36,8.11-8.35,15.94-16.98,23.6-25.74,10.3-11.76,22.71-20.29,37.21-26.02,7.72-3.06,15.47-6.18,22.82-10.02,5.74-3,10.87-7.15,16.56-10.99ZM11.67,85.96c1.75,6.1,3.88,11.58,4.8,17.25,1.15,7.05,1.61,14.26,1.83,21.42.45,14.54,3.72,28.12,11.3,40.71,7.71,12.79,16.34,25.22,18.37,40.52,4.54-.21,8.86-1.04,12.98-.46,10.07,1.41,20.12,3.13,30.03,5.37,13.2,2.99,26.29,3.65,39.53.49,7.08-1.69,14.21-3.13,21.35-4.58,7.65-1.55,15.36-2.13,23.31-.64,1-11.68,6.27-21.35,11.93-30.86,2.45-4.11,4.89-8.23,7.31-12.37,5.65-9.68,8.99-20.05,9.89-31.27,1.22-15.21,1.32-30.63,8.09-44.72-.4-.46-.57-.74-.81-.91-9.78-6.55-18.11-14.73-25.29-23.95-12.32-15.81-27.56-27.16-46.69-33.47-8.7-2.87-16.9-7.04-23.99-13.07-1.32-1.13-2.62-2.28-3.78-3.29-3.55,2.68-6.71,5.41-10.2,7.61-3.6,2.26-7.46,4.12-11.32,5.91-3.87,1.79-7.83,3.38-11.83,4.85-14.81,5.45-26.99,14.44-37.18,26.47-9.06,10.7-17.81,21.79-29.62,28.97Z"/>
    <path class="cls-1" d="m98.45,89.72c1.88.19,2.46,2.13,3.13,3.97,1.14,3.12,2.09,6.32,3.5,9.31.78,1.65,2.32,2.94,3.52,4.4.28-.21.55-.43.83-.64-.5-.77-.88-1.68-1.53-2.3-3.76-3.57-4.46-8.4-5.1-13.1-.15-1.07,1.59-2.74,2.83-3.6,4.7-3.26,6.99-8.42,5.76-14.13-.91-4.22-1.22-8.35.54-12.47.26.18.54.27.55.39.56,4.49,1.16,8.97,1.59,13.48.18,1.85.38,3.87-.17,5.58-.95,2.93.13,4.33,2.59,5.67,6.31,3.43,7.2,6.41,3.83,13.1-1.86,3.68-4.17,7.14-6.08,10.82,6.91-5.01,6.36-14.55,11.36-20.6,1.57,3.88,2.9,7.23,4.29,10.56,2.19,5.24,3.73,10.64,3.23,16.36-.57,6.59-3.84,11.54-9.74,14.65-.44.23-.83.55-1.56,1.04,1.5,1.21,2.83,2.27,4.62,3.71-4.38.25-8.2.47-11.44.65-.29,2.34-.55,4.02-.67,5.71-.05.65.32,1.34.29,2-.16,4.42-.05,8.89-.72,13.25-.25,1.62-2.14,3.21-3.64,4.33-.67.5-2.46.12-3.28-.49-.42-.31-.24-2.49.36-2.97,2.86-2.31,2.36-5.26,2.11-8.26-.09-1.03-.08-2.08,0-3.12.19-2.24,1.48-4.45-.34-6.7-.42-.52.22-1.91.42-3.25-1.74-.41-3.59-.85-5.68-1.34.59-.78,1.18-1.55,1.8-2.38-.36-.26-.58-.49-.85-.59-11.24-4.34-14.26-12.76-12.33-23.87.66-3.82,2.53-7.42,3.74-11.16.8-2.47,1.39-5,2.22-7.99Z"/>
    <path class="cls-1" d="m135.2,174.44h-15.13c-.09-.85-.25-1.63-.25-2.42-.02-7.79-.02-15.58,0-23.37,0-3.61,4.36-5.79,7.69-4.39,6.08,2.55,8.77,6.43,7.84,13.33-.73,5.4-.15,10.98-.15,16.85Zm-8.59-8.28h-3.58v5.09h3.58v-5.09Zm2.81-.15v5.35h3.45v-5.35h-3.45Z"/>
    <path class="cls-1" d="m102.21,174.44h-15.21c0-1.27,0-2.47,0-3.67,0-6.55-.09-13.1.09-19.64.03-1.15.97-2.58,1.93-3.35,1.68-1.35,3.77-2.18,5.55-3.43,1.59-1.11,2.87-.83,4.55-.09,2.56,1.12,3.4,2.67,3.31,5.48-.23,7.16-.07,14.34-.08,21.51,0,1.01-.08,2.02-.13,3.18Zm-9.38-8.34h-3.57v5.22h3.57v-5.22Zm2.74,5.08h3.6v-5.13h-3.6v5.13Z"/>
    <path class="cls-1" d="m61.44,116.11c2.46,5.75,7.02,7.47,11.81,8.77,4.81,1.31,9.71,2.31,14.48,3.77,4.23,1.3,8.01,3.41,10.15,8.18-10.14,2.17-19.93,3.41-29.16-2.29-6.45-3.98-8.9-10.12-7.27-18.44Z"/>
    <path class="cls-1" d="m163.4,117.56c1.76,8.11-3.01,16.03-12.09,19.17-7.96,2.75-15.9,1.91-24.1-.02,1.05-3.42,3.42-5.47,6.26-6.59,4.22-1.66,8.65-2.81,13-4.12,2.88-.87,5.99-1.23,8.61-2.56,3-1.53,5.58-3.89,8.31-5.87Z"/>
    <path class="cls-1" d="m150.34,171.19h-13.75c0-7.67-.05-15.14.03-22.6.02-1.81,2.58-3.31,4.32-2.57,2.76,1.18,5.48,2.49,8.14,3.89.59.31,1.2,1.23,1.21,1.88.09,6.41.05,12.83.05,19.4Zm-10.84-7.39c-.48,4.89-.4,5,2.94,4.09v-4.09h-2.94Zm4.66,4.62c1.23-.07,2.1-.13,3.07-.18v-4.7c-1.15.05-2.09.09-3.07.14v4.74Z"/>
    <path class="cls-1" d="m88.48,121.65c-8.8-.1-17.35-.51-22.57-8.77-3.97-6.28-2.93-12.85.48-19.38-.13,8.94,5.85,12.74,12.68,15.94,5.09,2.38,8.48,6.17,9.41,12.21Z"/>
    <path class="cls-1" d="m158.22,93.53c3.36,6.48,4.33,13.06.36,19.36-5.01,7.94-13.23,8.48-21.93,8.61,0-.74-.14-1.4.02-1.97,1.08-3.87,3.29-6.94,6.78-8.99,1.97-1.15,4.02-2.17,6.04-3.25,5.47-2.92,8.65-7.29,8.73-13.76Z"/>
    <path class="cls-1" d="m71.66,171.01c0-6.51-.04-12.74.06-18.96.01-.73.66-1.75,1.31-2.1,2.55-1.39,5.19-2.63,7.85-3.79,2.04-.89,4.56.47,4.59,2.53.09,7.37.03,14.73.03,22.33h-13.84Zm7.99-7.35v4.78c1.19-.08,2.15-.15,3.04-.22v-4.56h-3.04Zm-4.68-.01v4.72c1.14-.11,2-.19,2.77-.26v-4.46h-2.77Z"/>
    <path class="cls-1" d="m86.44,104.77c-6.71-.41-12.38-4.91-14.27-11.1-2.09-6.86.42-15.56,6.13-19.85-2.18,7.82,1.68,13.56,5.28,19.39,2.14,3.47,4.11,7.02,2.87,11.56Z"/>
    <path class="cls-1" d="m137.67,104.83c.47-2.77.59-5.23,1.35-7.48.72-2.12,2.03-4.07,3.22-6.01,3.24-5.29,6.11-10.65,4.27-17.38,5.14,3.25,7.86,11.86,6.19,18.88-1.5,6.29-7.14,11.08-15.02,11.98Z"/>
    <path class="cls-1" d="m70.62,167.84h-12.13c0-5.05-.05-9.99.07-14.94.01-.59.87-1.33,1.51-1.7,1.98-1.14,4.02-2.17,6.07-3.17,2.32-1.13,4.42.07,4.45,2.63.08,5.61.02,11.21.02,17.18Zm-7.56-2.19h2.89v-3.42h-2.89v3.42Z"/>
    <path class="cls-1" d="m163.52,167.88h-12.2c0-2.3,0-4.52,0-6.74,0-3.42-.03-6.85.04-10.27.06-2.73,2.14-3.94,4.59-2.78q7.57,3.6,7.57,12.1c0,2.47,0,4.94,0,7.7Zm-7.51-5.66v3.56h2.85v-3.56h-2.85Z"/>
    <path class="cls-1" d="m133.98,91.06c-3.04-5.87-2.98-11.56-.65-17.35,1.4-3.5,2.4-7.05.11-10.93,8.28,3.39,10.1,20.45.54,28.28Z"/>
    <path class="cls-1" d="m91.23,62.77c-2.32,4.61-.64,8.54.78,12.57,1.87,5.34,1.62,10.61-1.11,15.69-8.94-5.75-8.97-22.78.34-28.26Z"/>
    <path class="cls-1" d="m177.19,91.16c-1.55-3.25-3.06-5.72-3.9-8.41-.78-2.47.15-4.81,2.58-6.09,2.38-1.26,4.51-.35,6.18,1.45,1.04,1.12,1.93,2.47,2.56,3.86,1,2.21,1.73,4.55,2.73,7.26-3.02,1.42-6.33,3.11-9.75,4.5-.88.36-2.4.15-3.19-.42-3.58-2.59-5.22-6.36-5.68-10.65-.07-.68.49-1.42.77-2.14.26.01.53.03.79.04.11,1,.04,2.07.37,3,.84,2.36,1.62,4.8,2.94,6.88.46.73,2.42.52,3.61.72Zm6.84-5.94c.06-3.08-2.3-6.22-4.8-6.37-2.15-.13-4.28,1.79-4.38,3.95-.14,2.99,2.57,6.47,5.07,6.51,2.36.04,4.06-1.66,4.11-4.09Z"/>
    <path class="cls-1" d="m92.84,202.35c.59-3.87,1.18-7.74,1.77-11.6-.17-.08-.34-.16-.51-.23-2.07,3.8-4.14,7.61-6.21,11.41-.4-.07-.81-.14-1.21-.21-.76-4.17-1.53-8.35-2.29-12.52-.19-.04-.38-.07-.57-.11-.68,3.85-1.36,7.7-2.03,11.55-.51-.09-1.02-.17-1.53-.26.76-4.83,1.52-9.67,2.28-14.53,2.1-.77,2.98.04,3.26,1.97.54,3.65,1.14,7.29,1.77,11.24,3.68-3.59,3.69-9.48,8.69-11.63-.11,5.26-.96,10.22-1.95,15.16-.49-.08-.98-.15-1.47-.23Z"/>
    <path class="cls-1" d="m40.52,131.78c.74.86,4.77-2.53,4.27,2.51h-15.03c0-3.68-.27-7.6.1-11.46.24-2.54,2.08-4.3,4.86-4.4,2.79-.1,4.66,1.56,5.16,4.06.56,2.83.44,5.79.65,9.29Zm-1.2-5c.02-3.39-1.52-5.29-4.3-5.34-2.69-.04-4.42,1.83-4.5,4.85-.08,3.25,1.82,5.53,4.59,5.52,2.73-.01,4.18-1.75,4.2-5.03Z"/>
    <path class="cls-1" d="m173.9,73.75c-3.53-4.34-6.39-7.85-9.24-11.36-3.13,6.95,3.14,8.41,7.41,11.63-5.81,0-11.77-6.87-11.02-11.49.47-2.89,3.45-4.66,6.38-3.8,3.49,1.03,7.79,6.12,7.85,9.73.03,1.47-.75,2.96-1.39,5.27Zm-1.48-3.81c1.84-3.14.4-5.1-1.15-6.92-1.72-2.01-2.89-2.25-5.53-1.32,2.18,2.69,4.29,5.29,6.68,8.24Z"/>
    <path class="cls-1" d="m64.65,55.6c-2.94,3.42-5.87,6.83-9.07,10.55,3.43,1.42,5.64.11,7.08-2.13,1.29-2.01,1.93-4.46,2.85-6.71.29.06.57.11.86.17.04.73.27,1.51.09,2.18-1.17,4.26-3.83,7.45-7.84,9.11-1.35.56-3.76.3-4.81-.6-1.18-1.01-2.12-3.32-1.84-4.82.78-4.21,3.51-7.32,7.5-8.9,1.43-.57,3.26-.09,4.91-.09.09.41.19.82.28,1.23Zm-10.01,9.65c2.6-3.01,4.83-5.59,7.26-8.39-2.7-1.16-4.32-.09-5.72,1.34-1.71,1.75-2.93,3.73-1.54,7.04Z"/>
    <path class="cls-1" d="m184.66,99.32c-5.9,5.5-.56,9.52,1.38,14.11-5.19-2.21-7.41-11.72-4.11-15.3,1.78-1.93,3.96-2.23,6.2-.81,3.69,2.33,5.46,10.26,3.03,13.84-.65.95-1.76,1.59-3.2,2.83-1.16-5.14-2.16-9.61-3.3-14.67Zm3.74,10.86c2.86-1.87,2.67-4.13,2.11-6.35-.5-1.98-1.2-3.98-4.31-4.14.73,3.48,1.41,6.74,2.19,10.49Z"/>
    <path class="cls-1" d="m130.75,34.79c-1.9.77-3.8,1.53-6.12,2.47,2.05,2.57,3.94,4.94,5.83,7.31-.11.23-.22.46-.33.69-1.11-.54-2.39-.89-3.29-1.66-1.08-.93-1.74-2.35-2.78-3.33-.8-.75-2.12-1.79-2.84-1.56-.83.27-1.3,1.77-1.84,2.78-.23.43-.24.99-.61,2.65-1.07-1.3-2.27-2.11-2.19-2.77.5-4.41,1.27-8.8,1.97-13.36,1.04.18,1.81.31,2.81.48-.38,2.77-.74,5.4-1.13,8.3,3.64-1.13,6.95-2.15,10.27-3.18.08.4.16.79.25,1.19Z"/>
    <path class="cls-1" d="m78.42,40.69c-1.01,1.88-2.02,3.75-3.15,5.86,3.31.69,6.3,1.31,9.29,1.94.01.3.02.6.04.91-1.3.21-2.6.59-3.9.57-1.22-.02-2.43-.62-3.65-.66-1.19-.04-2.39.3-3.59.48.21,1.21.39,2.42.65,3.62.08.39.38.73.71,1.32-.71.49-1.42.97-2.36,1.61-2.62-4.36-5.11-8.51-7.58-12.64q2.23-1.89,3.74.6c.91,1.5,1.82,3,2.96,4.88,2.02-3.21,3.89-6.2,5.77-9.18.36.24.72.47,1.08.71Z"/>
    <path class="cls-1" d="m43.53,104.04c-1.05,2.65-1.74,5.53-3.28,7.84-.82,1.23-3.3,2.26-4.7,1.93-1.54-.36-3.58-2.23-3.82-3.7-.43-2.73-.13-5.76.63-8.45,1.05-3.7,3.62-5.32,6.26-4.8,2.9.57,4.37,2.92,4.91,7.17Zm-1.95.96c.13-3.04-1.47-5.06-4.11-5.19-2.64-.13-4.72,2.47-4.89,6.1-.14,3.07,1.44,5.07,4.09,5.18,2.68.11,4.75-2.46,4.9-6.08Z"/>
    <path class="cls-1" d="m120.27,195.89c1.75,2.29,3.29,4.3,4.83,6.32-.19.22-.39.44-.58.67-4.07-.97-4.37-8.81-10.83-5.99v6.43c-.43,0-.87.01-1.3.02-.32-4.96-.64-9.93-.98-15.17,2.33-.16,4.27-.31,6.21-.41,2.45-.12,4.95-.15,5.82,2.84.79,2.72-.71,4.31-3.18,5.3Zm-6.69-.97c2.31-.22,4.32-.15,6.13-.7.87-.26,1.95-1.73,1.89-2.58-.06-.85-1.33-2.12-2.24-2.3-1.85-.36-3.82-.11-5.78-.11v5.69Z"/>
    <path class="cls-1" d="m150.01,183.01c1.17,4.87,2.34,9.73,3.51,14.6-.25.26-.5.51-.75.77-4.49-2.21-7.2-6.83-11.83-9.92.95,4.15,1.81,7.88,2.66,11.6-.51.11-1.02.22-1.53.33-1.18-4.85-2.36-9.7-3.54-14.55.27-.25.54-.49.8-.74,4.55,2.14,7.19,6.87,11.77,9.88-.95-4.2-1.79-7.92-2.63-11.63.51-.12,1.02-.23,1.53-.35Z"/>
    <path class="cls-1" d="m91.15,46.01c-1.78,1.09-2.85,1.14-3.3-1.03-.49-2.33-1.33-4.6-1.74-6.94-.1-.57.9-1.32,1.39-1.99,1.46,1.56,2.21-.25,3.3-.65,1.92-.71,3.88-1.47,5.88-1.81,2.34-.39,4,.69,4.59,3.15.49,2.01,1.05,3.99,1.63,6.15-1.61.93-2.86,1.39-3.3-1.09-.16-.92-.47-1.81-.72-2.71-1.02-3.7-2.15-4.43-5.45-3.52-3.37.93-4.33,2.59-3.47,6.03.35,1.4.74,2.79,1.17,4.41Z"/>
    <path class="cls-1" d="m153.31,58.26c1.23-1.7,2.27-3.26,3.44-4.71,1.7-2.1,1.15-3.78-.77-5.33-2.55-2.06-4.87-2.18-6.6-.24-.69.77-1.23,1.67-1.86,2.5-.56.74-1.14,1.45-1.8,2.28-.75-.55-1.39-1.03-2.23-1.65,2.08-2.88,4.07-5.63,6.06-8.38,3.04,1.97,6.12,3.65,8.83,5.81,2.73,2.17,2.72,3.84.7,6.7-1.07,1.52-2.19,3.02-3.43,4.72-.83-.61-1.54-1.11-2.34-1.7Z"/>
    <path class="cls-1" d="m165.54,187.6c-1.29.35-2.59.71-3.88,1.06-.13-.4-.26-.8-.38-1.2,1.79-.68,3.58-1.36,5.35-2.04,3.15,5.34,1.04,9.42-4.89,9.91-4.47.37-8.12-3.18-8.36-8.12-.22-4.4,3.01-7.83,7.5-7.54,1.53.1,3,1.21,4.36,2.49-3.97-1.45-7.61-2.23-9.8,2.31-1.21,2.51.37,6.8,2.67,8.37,2.12,1.44,5.51,1.21,7.39-.93.83-.94.83-2.6,1.21-3.93-.39-.13-.78-.26-1.17-.39Z"/>
    <path class="cls-1" d="m69.86,191.03c-.48,1.78-.91,3.35-1.39,5.11,3.15.87,6.06,1.67,8.98,2.48-.1.44-.2.89-.31,1.33-3.43-.82-6.87-1.64-10.73-2.56,1.26-4.97,2.46-9.75,3.76-14.88,3.64.89,7.02,1.71,10.39,2.54-.09.47-.18.93-.28,1.4-2.86-.62-5.72-1.23-8.8-1.89-.43,1.64-.78,3.01-1.23,4.74,2.83.73,5.47,1.4,8.1,2.07-.07.4-.14.8-.21,1.19-2.64-.48-5.29-.97-8.29-1.52Z"/>
    <path class="cls-1" d="m54.43,188.53c1.56,1.64,2.86,3.58,4.68,4.67.89.54,2.73-.48,4.14-.8-.52-1.29-.8-2.78-1.63-3.82-.94-1.18-2.48-1.87-3.59-2.95-1.6-1.57-1.57-3.37-.03-4.97,2.04-2.12,4.38-1.46,6.6-.35,2.11,1.06,3.24,2.71,1.88,5.43-.27-.59-.62-1.15-.79-1.77-.7-2.51-2.69-3.05-4.85-2.98-.73.03-1.71.86-2.03,1.56-.23.51.25,1.64.76,2.12,1.2,1.13,2.87,1.84,3.87,3.1.92,1.17,1.84,2.92,1.66,4.27-.36,2.76-3.56,3.86-6.81,2.75-3.61-1.24-4.94-3.62-3.86-6.27Z"/>
    <path class="cls-1" d="m96.76,202.2c2.03-4.4,4.02-8.81,6.11-13.17.25-.53,1.05-1.17,1.53-1.12.52.05,1.22.76,1.41,1.32,1.56,4.6,3.02,9.24,4.5,13.86-.28.2-.55.39-.83.59-.57-.87-1.42-1.68-1.66-2.64-.48-1.91-1.38-2.77-3.43-2.63-1.95.13-4.21-.95-5.06,2.05-.25.88-1.08,1.6-1.65,2.39-.31-.22-.62-.43-.93-.65Zm4.33-5.55c1.93.17,3.49.31,5.47.48-.78-2.7-1.41-4.89-2.24-7.75-1.17,2.62-2.07,4.64-3.24,7.27Z"/>
    <path class="cls-1" d="m138.83,201.33c-.71-.86-1.7-1.6-2.09-2.59-1.27-3.17-3.63-1.28-5.55-1.39-1.87-.11-2.46,1.03-2.72,2.66-.16.96-.69,1.85-1.05,2.78-.33-.09-.67-.18-1-.27.34-1.84.64-3.68,1.02-5.51.62-2.94,1.25-5.89,1.99-8.8.15-.57.74-1.23,1.29-1.43.36-.14,1.22.32,1.47.75,2.58,4.32,5.08,8.69,7.61,13.04-.32.25-.64.51-.95.76Zm-9.51-5.17c2.06-.33,3.6-.57,5.43-.86-1.29-2.4-2.36-4.38-3.81-7.07-.6,2.94-1.05,5.13-1.62,7.93Z"/>
    <path class="cls-1" d="m47.58,68.76c-.34.9-.67,1.8-.99,2.66,5.6,4.46,5.97,4.53,8.95,1.88.22.15.44.29.66.44-.82,1.26-1.43,2.8-2.55,3.66-.7.53-2.26.24-3.3-.1-1.15-.37-2.09-1.39-3.23-1.8-1.15-.42-2.44-.45-3.97-.7-.39-1.24-1.02-3.21-1.91-6.01,1.83.91,2.73,1.35,3.8,1.89.64-.73,1.28-1.45,1.93-2.18.2.09.41.17.61.26Z"/>
    <path class="cls-1" d="m45.87,94.32c-4.87-1.88-9.21-3.55-13.8-5.32.26-.91.49-1.72.8-2.79,4.78,1.83,9.28,3.56,14.05,5.4-.38.98-.69,1.78-1.05,2.71Z"/>
    <path class="cls-1" d="m183.14,118.71c3.12-.24,6.01-.52,8.9-.66.6-.03,1.22.46,1.84.71-1.6,2.68,1.34,4.99.61,7.58-.11.41-.5.75-.94,1.36-.35-.6-.67-.92-.71-1.26-.56-5.11-1.03-5.5-6.25-5.03q-3.34.3-3.46-2.7Z"/>
    <path class="cls-1" d="m108.99,31.89c.63.75,1.7,1.44,1.8,2.25.29,2.24.11,4.53.25,6.79.12,2.15-.91,2.46-2.86,1.85v-10.03c.27-.29.54-.57.81-.86Z"/>
    <path class="cls-1" d="m194.35,132.9c-.81.52-1.6,1.43-2.44,1.47-2.26.13-4.55,0-6.79-.28-.76-.09-1.43-.92-2.15-1.42.8-.51,1.59-1.46,2.39-1.46,2.77,0,5.53.32,8.3.52.23.39.46.78.7,1.16Z"/>
    <path class="cls-1" d="m41.06,79.58c3.04,1.48,6.07,2.95,9.34,4.54-.44.91-.81,1.67-1.25,2.58-2.8-1.35-5.45-2.48-7.93-3.9-.7-.4-.91-1.68-1.34-2.55.39-.22.78-.44,1.18-.66Z"/>
  </g>
</svg>